<?xml version="1.0" standalone="no"?>
<!DOCTYPE svg PUBLIC "-//W3C//DTD SVG 20010904//EN"
 "http://www.w3.org/TR/2001/REC-SVG-20010904/DTD/svg10.dtd">
<svg version="1.0" xmlns="http://www.w3.org/2000/svg"
 width="512.000000pt" height="512.000000pt" viewBox="0 0 512.000000 512.000000"
 preserveAspectRatio="xMidYMid meet">
<metadata>
Created by potrace 1.14, written by Peter Selinger 2001-2017
</metadata>
<g transform="translate(0.000000,512.000000) scale(0.100000,-0.100000)"
fill="#000000" stroke="none">
<path d="M2340 5109 c-781 -67 -1485 -489 -1923 -1154 -91 -139 -208 -372
-265 -530 -150 -415 -188 -888 -107 -1328 128 -692 525 -1288 1120 -1680 139
-91 372 -208 530 -265 415 -150 888 -188 1328 -107 692 128 1288 525 1680
1120 91 139 208 372 265 530 150 415 188 888 107 1328 -128 692 -525 1288
-1120 1680 -134 88 -368 206 -520 262 -334 123 -732 175 -1095 144z m742 -674
c293 -37 394 -89 447 -229 46 -124 47 -335 2 -424 -42 -82 -95 -93 -277 -62
-272 47 -470 -6 -565 -152 -58 -91 -71 -164 -78 -436 l-6 -232 316 0 c347 0
381 -4 457 -60 24 -17 53 -52 69 -82 26 -50 28 -61 28 -178 0 -137 -11 -173
-71 -234 -75 -75 -142 -86 -508 -86 l-291 0 6 -202 c6 -225 18 -276 80 -363
97 -135 318 -184 582 -129 182 38 249 3 277 -147 21 -107 7 -262 -32 -350 -27
-63 -100 -131 -169 -157 -98 -36 -299 -65 -454 -64 -185 1 -318 21 -510 76
-11 4 -6 0 10 -8 l30 -14 -38 -17 c-63 -26 -147 -38 -242 -32 -200 12 -316 88
-376 249 -24 62 -24 68 -25 463 -1 220 -2 466 -3 546 l-1 147 -172 4 c-122 3
-186 9 -216 20 -127 47 -184 138 -185 298 -1 149 44 235 151 287 55 27 63 28
240 31 l182 4 0 207 c0 377 38 617 125 796 132 272 358 436 698 506 188 38
346 45 519 24z"/>
<path d="M1940 1240 c11 -16 26 -33 32 -36 7 -4 -1 9 -16 29 -34 44 -46 50
-16 7z"/>
<path d="M2056 1114 c39 -38 85 -77 103 -87 44 -25 39 -15 -8 16 -21 14 -67
51 -102 82 -61 55 -61 54 7 -11z"/>
<path d="M2220 995 c0 -7 81 -47 86 -43 2 3 -17 14 -41 26 -25 12 -45 20 -45
17z"/>
</g>
</svg>
