<?xml version="1.0" standalone="no"?>
<!DOCTYPE svg PUBLIC "-//W3C//DTD SVG 20010904//EN"
 "http://www.w3.org/TR/2001/REC-SVG-20010904/DTD/svg10.dtd">
<svg version="1.0" xmlns="http://www.w3.org/2000/svg"
 width="512.000000pt" height="512.000000pt" viewBox="0 0 512.000000 512.000000"
 preserveAspectRatio="xMidYMid meet">
<metadata>
Created by potrace 1.14, written by Peter Selinger 2001-2017
</metadata>
<g transform="translate(0.000000,512.000000) scale(0.100000,-0.100000)"
fill="#000000" stroke="none">
<path d="M2355 5109 c-433 -35 -861 -184 -1219 -426 -377 -255 -673 -594 -871
-998 -116 -236 -188 -457 -229 -705 -95 -574 13 -1187 296 -1680 357 -619 927
-1054 1603 -1223 236 -59 348 -72 625 -72 255 0 371 12 560 56 479 111 906
345 1245 684 403 403 647 895 731 1470 22 147 25 515 6 650 -59 423 -190 773
-412 1108 -515 775 -1411 1211 -2335 1136z m1038 -785 c65 -22 131 -95 153
-170 34 -117 -7 -257 -92 -317 -33 -23 -58 -31 -125 -38 -227 -26 -311 -48
-396 -105 -99 -67 -142 -162 -151 -326 l-5 -108 199 0 c282 0 352 -22 414
-131 22 -40 25 -55 25 -154 0 -126 -17 -173 -79 -220 -62 -47 -110 -55 -343
-55 l-213 0 0 -40 0 -40 244 0 c134 0 268 -5 297 -10 85 -16 139 -55 174 -124
26 -52 29 -70 29 -146 0 -76 -3 -94 -29 -146 -24 -46 -41 -66 -79 -89 l-49
-30 -294 -5 -294 -5 -1 -170 c0 -187 13 -250 67 -321 88 -115 279 -157 507
-110 103 22 150 16 188 -23 38 -37 54 -120 47 -241 -6 -124 -33 -196 -92 -248
-55 -48 -115 -68 -285 -94 -148 -22 -290 -20 -445 7 -77 14 -80 13 -99 -7 -68
-73 -271 -101 -408 -57 -61 19 -82 32 -128 78 -97 99 -94 77 -100 671 l-5 515
-165 5 c-146 4 -170 8 -207 27 -92 49 -128 130 -121 265 5 96 27 148 82 196
51 44 92 53 264 59 l152 5 0 39 0 39 -129 0 c-155 0 -217 16 -272 71 -51 51
-72 119 -67 222 8 195 104 267 355 267 l113 0 0 43 c0 136 47 348 105 473 130
283 403 463 800 528 222 37 387 44 458 20z"/>
</g>
</svg>
